<svg id="Ebene_2" data-name="Ebene 2" xmlns="http://www.w3.org/2000/svg" viewBox="0 0 50 50"><defs><style>.cls-1{fill:#ffbf0a;}</style></defs><path class="cls-1" d="M32,16A16,16,0,1,0,48,32,16,16,0,0,0,32,16ZM46,31H39.54c-.15-5.18-1.46-9.69-3.39-12.37A14,14,0,0,1,46,31ZM32,46c-2.23,0-5.3-4.92-5.54-13H37.54C37.3,41.08,34.23,46,32,46ZM26.46,31c.24-8.08,3.31-13,5.54-13s5.3,4.92,5.54,13Zm1.39-12.37c-1.93,2.68-3.24,7.19-3.39,12.37H18.05A14,14,0,0,1,27.85,18.63ZM18.05,33h6.41c.15,5.18,1.46,9.69,3.39,12.37A14,14,0,0,1,18.05,33Zm18.1,12.37c1.93-2.68,3.24-7.19,3.39-12.37H46A14,14,0,0,1,36.15,45.37Z"/></svg>