<svg id="Ebene_2" data-name="Ebene 2" xmlns="http://www.w3.org/2000/svg" viewBox="0 0 100 50"><defs><style>.cls-1{fill:#ffbf0a;}</style></defs><rect class="cls-1" x="4.35" y="20.24" width="4" height="4" rx="0.2"/><rect class="cls-1" x="4.19" y="26.75" width="5.96" height="4" rx="0.2"/><rect class="cls-1" x="4.19" y="33.25" width="7.95" height="4" rx="0.2"/><rect class="cls-1" x="4.35" y="39.76" width="4" height="4" rx="0.2"/><rect class="cls-1" x="11.09" y="39.76" width="4" height="4" rx="0.2"/><rect class="cls-1" x="18.74" y="39.76" width="26.64" height="4" rx="0.2"/><rect class="cls-1" x="10.49" y="20.24" width="4" height="4" rx="0.2"/><rect class="cls-1" x="16.62" y="20.24" width="4" height="4" rx="0.2"/><rect class="cls-1" x="22.75" y="20.24" width="4" height="4" rx="0.2"/><rect class="cls-1" x="28.88" y="20.24" width="4" height="4" rx="0.2"/><rect class="cls-1" x="35.02" y="20.24" width="4" height="4" rx="0.2"/><rect class="cls-1" x="41.15" y="20.24" width="4" height="4" rx="0.2"/><rect class="cls-1" x="47.28" y="20.24" width="4" height="4" rx="0.2"/><rect class="cls-1" x="48.95" y="39.76" width="4" height="4" rx="0.2"/><rect class="cls-1" x="55.65" y="39.76" width="4" height="4" rx="0.2"/><rect class="cls-1" x="48.08" y="33.25" width="11.73" height="4" rx="0.2"/><rect class="cls-1" x="40.66" y="33.25" width="4" height="4" rx="0.2"/><rect class="cls-1" x="34.3" y="33.25" width="4" height="4" rx="0.2"/><rect class="cls-1" x="27.94" y="33.25" width="4" height="4" rx="0.2"/><rect class="cls-1" x="21.59" y="33.25" width="4" height="4" rx="0.2"/><rect class="cls-1" x="15.23" y="33.25" width="4" height="4" rx="0.2"/><rect class="cls-1" x="55.65" y="26.75" width="4" height="4" rx="0.2"/><rect class="cls-1" x="49.55" y="26.75" width="4" height="4" rx="0.2"/><rect class="cls-1" x="43.45" y="26.75" width="4" height="4" rx="0.2"/><rect class="cls-1" x="37.35" y="26.75" width="4" height="4" rx="0.2"/><rect class="cls-1" x="31.25" y="26.75" width="4" height="4" rx="0.2"/><rect class="cls-1" x="25.15" y="26.75" width="4" height="4" rx="0.2"/><rect class="cls-1" x="19.05" y="26.75" width="4" height="4" rx="0.2"/><rect class="cls-1" x="12.95" y="26.75" width="4" height="4" rx="0.2"/><rect class="cls-1" x="53.75" y="20.24" width="6.06" height="4" rx="0.2"/><path class="cls-1" d="M62,18.34V45.66H2V18.34H62m1.5-2H.5a.5.5,0,0,0-.5.5V47.16a.5.5,0,0,0,.5.5h63a.5.5,0,0,0,.5-.5V16.84a.5.5,0,0,0-.5-.5Z"/></svg>