<svg id="Ebene_2" data-name="Ebene 2" xmlns="http://www.w3.org/2000/svg" viewBox="0 0 64 64"><defs><style>.cls-1{opacity:0.5;}.cls-2{fill:#17375e;}</style></defs><g class="cls-1"><path class="cls-2" d="M48.71,15.29a1,1,0,0,0-1.42,0L42.57,20l-1.42,1.42L38.55,24l-1.64,1.64L31.59,31l-2,2-2.91,2.91-1.74,1.73-3.51,3.51L20,42.57l-4.72,4.72a1,1,0,0,0,0,1.42,1,1,0,0,0,1.42,0L21.43,44l1.42-1.42L25.45,40l1.64-1.64L32.41,33l2-2,2.91-2.9,1.74-1.74,3.51-3.51L44,21.43l4.72-4.72A1,1,0,0,0,48.71,15.29Z"/><path class="cls-2" d="M20.23,39.53A13.86,13.86,0,0,1,18.05,33h6.41c0,.73.07,1.45.14,2.16l1.88-1.88a2.46,2.46,0,0,1,0-.28h.3l2-2h-2.3c.24-8.08,3.31-13,5.54-13,1.41,0,3.15,2,4.3,5.45l1.55-1.54a15.24,15.24,0,0,0-1.7-3.28,13.83,13.83,0,0,1,3.39,1.59L41,18.77A16,16,0,0,0,18.77,41Zm7.62-20.9c-1.93,2.68-3.24,7.19-3.39,12.37H18.05A14,14,0,0,1,27.85,18.63Z"/><path class="cls-2" d="M43.77,24.47A13.86,13.86,0,0,1,46,31H39.54c0-.73-.07-1.45-.14-2.16l-1.88,1.88a2.46,2.46,0,0,1,0,.28h-.3l-2,2h2.3C37.3,41.08,34.23,46,32,46c-1.41,0-3.15-2-4.3-5.45l-1.55,1.54a15,15,0,0,0,1.7,3.28,13.83,13.83,0,0,1-3.39-1.59L23,45.23A16,16,0,0,0,45.23,23Zm-7.62,20.9c1.93-2.68,3.24-7.19,3.39-12.37H46A14,14,0,0,1,36.15,45.37Z"/></g></svg>