<svg id="Ebene_2" data-name="Ebene 2" xmlns="http://www.w3.org/2000/svg" viewBox="0 0 64 64"><defs><style>.cls-1,.cls-2{fill:#7a7a7a;}.cls-1{opacity:0.22;}.cls-2{opacity:0.66;}.cls-3{fill:#17375e;}</style></defs><path class="cls-1" d="M32,48A16,16,0,1,1,48,32,16,16,0,0,1,32,48Zm0-30.5A14.5,14.5,0,1,0,46.5,32,14.52,14.52,0,0,0,32,17.5Z"/><path class="cls-2" d="M32,43.4A11.4,11.4,0,1,1,43.4,32,11.41,11.41,0,0,1,32,43.4Zm0-21.3A9.9,9.9,0,1,0,41.9,32,9.91,9.91,0,0,0,32,22.1Z"/><circle class="cls-3" cx="32" cy="32" r="5.12"/></svg>